<?xml version="1.0" encoding="UTF-8" standalone="no"?>
<svg
   xmlns:dc="http://purl.org/dc/elements/1.1/"
   xmlns:cc="http://creativecommons.org/ns#"
   xmlns:rdf="http://www.w3.org/1999/02/22-rdf-syntax-ns#"
   xmlns:svg="http://www.w3.org/2000/svg"
   xmlns="http://www.w3.org/2000/svg"
   xmlns:sodipodi="http://sodipodi.sourceforge.net/DTD/sodipodi-0.dtd"
   xmlns:inkscape="http://www.inkscape.org/namespaces/inkscape"
   version="1.1"
   width="24"
   height="24"
   viewBox="0 0 24 24"
   id="svg3446"
   inkscape:version="0.91 r13725"
   sodipodi:docname="camera_thin.svg">
  <metadata
     id="metadata3458">
    <rdf:RDF>
      <cc:Work
         rdf:about="">
        <dc:format>image/svg+xml</dc:format>
        <dc:type
           rdf:resource="http://purl.org/dc/dcmitype/StillImage" />
      </cc:Work>
    </rdf:RDF>
  </metadata>
  <defs
     id="defs3456" />
  <sodipodi:namedview
     pagecolor="#ffffff"
     bordercolor="#666666"
     borderopacity="1"
     objecttolerance="10"
     gridtolerance="10"
     guidetolerance="10"
     inkscape:pageopacity="0"
     inkscape:pageshadow="2"
     inkscape:window-width="1748"
     inkscape:window-height="848"
     id="namedview3454"
     showgrid="false"
     inkscape:zoom="27.812867"
     inkscape:cx="0.081056131"
     inkscape:cy="12"
     inkscape:window-x="0"
     inkscape:window-y="30"
     inkscape:window-maximized="0"
     inkscape:current-layer="svg3446" />
  <path
     fill-rule="evenodd"
     d="      M4,4         H7         L9,2.5         H15         L17,4         H20         A2,2 0 0,1 22,6         V16         A2,2 0 0,1 20,18         H4                  A2,2 0 0,1 2,16                  V6                  A2,2 0 0,1 4,4          M20.5,16.5         H3.5         V5.5         H20.5     M14,4         H10             L8,5.5             V5.5             H16         M12,5.5             A5,5 0 0,0 12,15.5             A5,5 0 0,0 12,5.5     "
     id="path3448" />
  <circle
     cx="12"
     cy="10.5"
     r="3.25"
     stroke="white"
     stroke-width=".5"
     fill="white"
     id="circle3529" />
  <line
     stroke="black"
     stroke-width="1.5"
     x1="3.25"
     y1="2.5"
     x2="19.75"
     y2="19"
     id="line3450" />
  <line
     x1="3.7813313"
     y1="0.89414877"
     x2="21.424397"
     y2="18.527214"
     id="line3452"
     style="stroke:#ffffff;stroke-width:1.51520753" />
</svg>
