<?xml version="1.0" encoding="UTF-8" standalone="no"?>
<svg
   xmlns:dc="http://purl.org/dc/elements/1.1/"
   xmlns:cc="http://creativecommons.org/ns#"
   xmlns:rdf="http://www.w3.org/1999/02/22-rdf-syntax-ns#"
   xmlns:svg="http://www.w3.org/2000/svg"
   xmlns="http://www.w3.org/2000/svg"
   xmlns:sodipodi="http://sodipodi.sourceforge.net/DTD/sodipodi-0.dtd"
   xmlns:inkscape="http://www.inkscape.org/namespaces/inkscape"
   version="1.1"
   width="24"
   height="24"
   viewBox="0 0 24 24"
   id="svg3446"
   inkscape:version="0.91 r13725"
   sodipodi:docname="camera.svg">
  <metadata
     id="metadata3458">
    <rdf:RDF>
      <cc:Work
         rdf:about="">
        <dc:format>image/svg+xml</dc:format>
        <dc:type
           rdf:resource="http://purl.org/dc/dcmitype/StillImage" />
      </cc:Work>
    </rdf:RDF>
  </metadata>
  <defs
     id="defs3456" />
  <sodipodi:namedview
     pagecolor="#ffffff"
     bordercolor="#666666"
     borderopacity="1"
     objecttolerance="10"
     gridtolerance="10"
     guidetolerance="10"
     inkscape:pageopacity="0"
     inkscape:pageshadow="2"
     inkscape:window-width="1035"
     inkscape:window-height="845"
     id="namedview3454"
     showgrid="false"
     inkscape:zoom="27.812867"
     inkscape:cx="9.2665748"
     inkscape:cy="10.2758"
     inkscape:window-x="924"
     inkscape:window-y="180"
     inkscape:window-maximized="0"
     inkscape:current-layer="svg3446" />
  <path
     d="m 3.9751455,6.0985357 3.0090342,0 2.0060228,-1.7294309 6.0180685,0 2.006023,1.7294309 3.009034,0 a 2.0060228,1.729431 0 0 1 2.006023,1.729431 l 0,8.6471553 a 2.0060228,1.729431 0 0 1 -2.006023,1.72943 l -16.0481825,0 a 2.0060228,1.729431 0 0 1 -2.0060228,-1.72943 l 0,-8.6471553 a 2.0060228,1.729431 0 0 1 2.0060228,-1.729431 m 16.0481825,10.3765863 -16.0481825,0 0,-8.6471553 16.0481825,0 m -6.018068,-1.729431 -4.012046,0 -2.0060229,1.729431 0,0 8.0240919,0 M 11.999237,7.395609 a 5.0150572,4.3235776 0 1 0 0,8.647155 5.0150572,4.3235776 0 0 0 0,-8.647155 m 0,1.7294309 a 3.0090342,2.5941465 0 0 1 3.009034,2.5941461 3.0090342,2.5941465 0 0 1 -3.009034,2.594147 3.0090342,2.5941465 0 0 1 -3.0090345,-2.594147 3.0090342,2.5941465 0 0 1 3.0090345,-2.5941461 z"
     id="path3448"
     inkscape:connector-curvature="0"
     style="fill-rule:evenodd" />
  <line
     x1="2.9721341"
     y1="4.8014627"
     x2="19.521822"
     y2="19.069267"
     id="line3450"
     style="stroke:#000000;stroke-width:1.86259985" />
  <line
     x1="4.1608524"
     y1="3.412858"
     x2="21.847019"
     y2="18.660442"
     id="line3452"
     style="stroke:#ffffff;stroke-width:1.87676251" />
</svg>
