<?xml version="1.0" encoding="UTF-8" standalone="no"?>
<!-- Created with Inkscape (http://www.inkscape.org/) -->

<svg
   xmlns:dc="http://purl.org/dc/elements/1.1/"
   xmlns:cc="http://creativecommons.org/ns#"
   xmlns:rdf="http://www.w3.org/1999/02/22-rdf-syntax-ns#"
   xmlns:svg="http://www.w3.org/2000/svg"
   xmlns="http://www.w3.org/2000/svg"
   xmlns:sodipodi="http://sodipodi.sourceforge.net/DTD/sodipodi-0.dtd"
   xmlns:inkscape="http://www.inkscape.org/namespaces/inkscape"
   width="9.9850292in"
   height="2.9130042in"
   viewBox="0 0 898.65265 262.17038"
   id="svg3360"
   version="1.1"
   inkscape:version="0.91 r13725"
   sodipodi:docname="horiz_logo.svg">
  <defs
     id="defs3362" />
  <sodipodi:namedview
     id="base"
     pagecolor="#ffffff"
     bordercolor="#666666"
     borderopacity="1.0"
     inkscape:pageopacity="0.0"
     inkscape:pageshadow="2"
     inkscape:zoom="1.4"
     inkscape:cx="454.7264"
     inkscape:cy="119.31772"
     inkscape:document-units="px"
     inkscape:current-layer="layer1"
     showgrid="false"
     showguides="true"
     inkscape:guide-bbox="true"
     inkscape:window-width="1920"
     inkscape:window-height="1017"
     inkscape:window-x="0"
     inkscape:window-y="30"
     inkscape:window-maximized="1"
     fit-margin-top="0.5"
     units="in"
     fit-margin-left="0.5"
     fit-margin-right="0.5"
     fit-margin-bottom="0.5">
    <sodipodi:guide
       position="491.28625,92.440682"
       orientation="0,1"
       id="guide3400" />
    <sodipodi:guide
       position="245.31411,202.04224"
       orientation="0,1"
       id="guide3402" />
  </sodipodi:namedview>
  <metadata
     id="metadata3365">
    <rdf:RDF>
      <cc:Work
         rdf:about="">
        <dc:format>image/svg+xml</dc:format>
        <dc:type
           rdf:resource="http://purl.org/dc/dcmitype/StillImage" />
        <dc:title></dc:title>
      </cc:Work>
    </rdf:RDF>
  </metadata>
  <g
     inkscape:label="Layer 1"
     inkscape:groupmode="layer"
     id="layer1"
     transform="translate(-22.881391,-425.03343)">
    <g
       id="g3587"
       transform="matrix(9.3654011,0,0,7.0662026,49.150591,467.50168)">
      <path
         id="path3448-6"
         d="m 4,4 3,0 2,-1.5 6,0 2,1.5 3,0 a 2,2 0 0 1 2,2 l 0,10 a 2,2 0 0 1 -2,2 L 4,18 A 2,2 0 0 1 2,16 L 2,6 A 2,2 0 0 1 4,4 m 16.5,12.5 -17,0 0,-11 17,0 M 14,4 10,4 8,5.5 l 0,0 8,0 m -4,0 a 5.0000001,5.0000001 0 1 0 0,10 5.0000001,5.0000001 0 0 0 0,-10"
         inkscape:connector-curvature="0"
         style="fill-rule:evenodd" />
      <circle
         id="circle3529"
         r="3.25"
         cy="10.5"
         cx="12"
         style="fill:#ffffff;stroke:#ffffff;stroke-width:0.5" />
      <line
         id="line3450-4"
         y2="19"
         x2="19.75"
         y1="2.5"
         x1="3.25"
         style="stroke:#000000;stroke-width:1.5" />
      <line
         style="stroke:#ffffff;stroke-width:1.51520753"
         id="line3452-6"
         y2="18.527214"
         x2="21.424397"
         y1="0.89414877"
         x1="3.7813313" />
    </g>
    <text
       xml:space="preserve"
       style="font-style:normal;font-weight:normal;font-size:40px;line-height:125%;font-family:Sans;letter-spacing:0px;word-spacing:0px;fill:#000000;fill-opacity:1;stroke:none;stroke-width:1px;stroke-linecap:butt;stroke-linejoin:miter;stroke-opacity:1"
       x="263.84061"
       y="594.71844"
       id="text3396"
       sodipodi:linespacing="125%"><tspan
         sodipodi:role="line"
         id="tspan3398"
         x="263.84061"
         y="594.71844"
         style="font-style:normal;font-variant:normal;font-weight:normal;font-stretch:normal;font-size:125px;font-family:Pacifico;-inkscape-font-specification:Pacifico"
         dx="0 0 0 0 0 0 0 0 0 0">dontpos<tspan
   style="letter-spacing:-2.0999999px"
   id="tspan3876">t</tspan><tspan
   id="tspan4188"
   style="letter-spacing:-11px"
   dx="0">.</tspan>me </tspan></text>
  </g>
</svg>
