<?xml version="1.0" encoding="UTF-8" standalone="no"?>
<!-- Created with Inkscape (http://www.inkscape.org/) -->

<svg
   xmlns:dc="http://purl.org/dc/elements/1.1/"
   xmlns:cc="http://creativecommons.org/ns#"
   xmlns:rdf="http://www.w3.org/1999/02/22-rdf-syntax-ns#"
   xmlns:svg="http://www.w3.org/2000/svg"
   xmlns="http://www.w3.org/2000/svg"
   xmlns:sodipodi="http://sodipodi.sourceforge.net/DTD/sodipodi-0.dtd"
   xmlns:inkscape="http://www.inkscape.org/namespaces/inkscape"
   width="11in"
   height="8.5in"
   viewBox="0 0 990 765"
   id="svg2"
   version="1.1"
   inkscape:version="0.91 r13725"
   sodipodi:docname="dontpostme.svg"
   inkscape:export-filename="/home/brad/Desktop/dontpostme.svg.png"
   inkscape:export-xdpi="300"
   inkscape:export-ydpi="300">
  <defs
     id="defs4" />
  <sodipodi:namedview
     id="base"
     pagecolor="#ffffff"
     bordercolor="#666666"
     borderopacity="1.0"
     inkscape:pageopacity="0.0"
     inkscape:pageshadow="2"
     inkscape:zoom="1"
     inkscape:cx="458.77113"
     inkscape:cy="397.6327"
     inkscape:document-units="in"
     inkscape:current-layer="layer2"
     showgrid="false"
     units="in"
     inkscape:window-width="1920"
     inkscape:window-height="1017"
     inkscape:window-x="0"
     inkscape:window-y="30"
     inkscape:window-maximized="1"
     showguides="true"
     inkscape:guide-bbox="true">
    <inkscape:grid
       type="xygrid"
       id="grid3593" />
    <sodipodi:guide
       position="495.71429,682.85714"
       orientation="1,0"
       id="guide3595" />
  </sodipodi:namedview>
  <metadata
     id="metadata7">
    <rdf:RDF>
      <cc:Work
         rdf:about="">
        <dc:format>image/svg+xml</dc:format>
        <dc:type
           rdf:resource="http://purl.org/dc/dcmitype/StillImage" />
        <dc:title></dc:title>
      </cc:Work>
    </rdf:RDF>
  </metadata>
  <g
     inkscape:label="Layer 1"
     inkscape:groupmode="layer"
     id="layer1"
     transform="translate(0,-287.3622)" />
  <g
     inkscape:groupmode="layer"
     id="layer2"
     inkscape:label="logo">
    <text
       xml:space="preserve"
       style="font-style:normal;font-variant:normal;font-weight:normal;font-stretch:normal;font-size:180px;line-height:125%;font-family:Pacifico;-inkscape-font-specification:Pacifico;letter-spacing:0px;word-spacing:0px;fill:#000000;fill-opacity:1;stroke:none;stroke-width:1px;stroke-linecap:butt;stroke-linejoin:miter;stroke-opacity:1"
       x="42.857147"
       y="664.71423"
       id="text3421"
       sodipodi:linespacing="125%"><tspan
         sodipodi:role="line"
         id="tspan3423"
         x="42.857147"
         y="664.71423">dontpost.me </tspan></text>
    <flowRoot
       xml:space="preserve"
       id="flowRoot3425"
       style="fill:black;stroke:none;stroke-opacity:1;stroke-width:1px;stroke-linejoin:miter;stroke-linecap:butt;fill-opacity:1;font-family:Sans;font-style:normal;font-weight:normal;font-size:40px;line-height:125%;letter-spacing:0px;word-spacing:0px"><flowRegion
         id="flowRegion3427"><rect
           id="rect3429"
           width="20"
           height="45.714287"
           x="52.857143"
           y="467.85715" /></flowRegion><flowPara
         id="flowPara3431"></flowPara></flowRoot>    <g
       id="g3587"
       transform="matrix(31.177875,0,0,22.944159,121.92997,73.621886)">
      <path
         id="path3448-6"
         d="m 4,4 3,0 2,-1.5 6,0 2,1.5 3,0 a 2,2 0 0 1 2,2 l 0,10 a 2,2 0 0 1 -2,2 L 4,18 A 2,2 0 0 1 2,16 L 2,6 A 2,2 0 0 1 4,4 m 16.5,12.5 -17,0 0,-11 17,0 M 14,4 10,4 8,5.5 l 0,0 8,0 m -4,0 a 5.0000001,5.0000001 0 1 0 0,10 5.0000001,5.0000001 0 0 0 0,-10"
         inkscape:connector-curvature="0"
         style="fill-rule:evenodd" />
      <circle
         id="circle3529"
         r="3.25"
         cy="10.5"
         cx="12"
         style="fill:#ffffff;stroke:#ffffff;stroke-width:0.5" />
      <line
         id="line3450-4"
         y2="19"
         x2="19.75"
         y1="2.5"
         x1="3.25"
         style="stroke:#000000;stroke-width:1.5" />
      <line
         style="stroke:#ffffff;stroke-width:1.51520753"
         id="line3452-6"
         y2="18.527214"
         x2="21.424397"
         y1="0.89414877"
         x1="3.7813313" />
    </g>
  </g>
</svg>
